<?xml version="1.0" encoding="utf-8"?>
<svg
  xmlns="http://www.w3.org/2000/svg"
  xmlns:xlink="http://www.w3.org/1999/xlink">
  <symbol viewBox="0 0 21 22" id="calendar"
    xmlns="http://www.w3.org/2000/svg">
    <path d="M19.251 2.025h-2.845V.648c0-.381-.294-.689-.656-.689-.363 0-.656.308-.656.689v1.377h-3.938V.648c0-.381-.294-.689-.655-.689-.363 0-.657.308-.657.689v1.377H5.906V.648c0-.381-.294-.689-.656-.689-.363 0-.657.308-.657.689v1.377H1.75C.784 2.025 0 2.847 0 3.862v16.302C0 21.179.784 22 1.75 22h17.501c.966 0 1.749-.821 1.749-1.836V3.862c0-1.015-.783-1.837-1.749-1.837zm.437 18.139a.448.448 0 0 1-.437.459H1.75a.45.45 0 0 1-.438-.459V3.862a.45.45 0 0 1 .438-.459h2.844v1.378c0 .381.294.689.657.689.362 0 .656-.308.656-.689V3.403h3.938v1.378c0 .381.294.689.657.689.361 0 .655-.308.655-.689V3.403h3.938v1.378c0 .381.293.689.656.689.362 0 .656-.308.656-.689V3.403h2.845c.241 0 .437.206.437.459v16.302z"/>
    <path d="M4.594 8.225h2.625v2.066H4.594zm0 3.443h2.625v2.067H4.594zm0 3.444h2.625v2.066H4.594zm4.594 0h2.625v2.066H9.188zm0-3.444h2.625v2.067H9.188zm0-3.443h2.625v2.066H9.188zm4.593 6.887h2.625v2.066h-2.625zm0-3.444h2.625v2.067h-2.625zm0-3.443h2.625v2.066h-2.625z"/>
  </symbol>
  <symbol viewBox="0 0 23 23" id="checkbox-off"
    xmlns="http://www.w3.org/2000/svg">
    <path d="M20 2c.542 0 1 .458 1 1v17c0 .542-.458 1-1 1H3c-.542 0-1-.458-1-1V3c0-.542.458-1 1-1h17m0-2H3C1.35 0 0 1.35 0 3v17c0 1.65 1.35 3 3 3h17c1.65 0 3-1.35 3-3V3c0-1.65-1.35-3-3-3z"/>
  </symbol>
  <symbol viewBox="0 0 27 23" id="checkbox-on"
    xmlns="http://www.w3.org/2000/svg">
    <path d="M7.285 7.486l-2.829 2.829 7.783 7.783L26.171 4.166l-2.828-2.829-11.104 11.102z"/>
    <path d="M21 20c0 .542-.458 1-1 1H3c-.542 0-1-.458-1-1V3c0-.542.458-1 1-1h16.908L21.493.415A2.96 2.96 0 0 0 20 0H3C1.35 0 0 1.35 0 3v17c0 1.65 1.35 3 3 3h17c1.65 0 3-1.35 3-3v-9.829l-2 2V20z"/>
  </symbol>
  <symbol viewBox="0 0 12 22" id="facebook"
    xmlns="http://www.w3.org/2000/svg">
    <path d="M12 4V0H8a4 4 0 0 0-4 4v4H0v4h4v10h4V12h4V8H8V4h4z"/>
  </symbol>
  <symbol viewBox="0 0 20 23" id="filter-circle"
    xmlns="http://www.w3.org/2000/svg">
    <path opacity=".3" d="M10 20C4.477 20 0 15.522 0 10v2c0 5.522 4.477 10 10 10 5.522 0 10-4.478 10-10v-2c0 5.522-4.478 10-10 10z"/>
    <circle cx="10" cy="10" r="10"/>
    <circle cx="10" cy="10" r="2"/>
  </symbol>
  <symbol viewBox="0 0 74 70" id="food"
    xmlns="http://www.w3.org/2000/svg">
    <path d="M69.854 46.71H4.051c-2.274 0-4.135 1.94-4.135 4.313v3.504c0 2.372 1.861 4.313 4.135 4.313h.93v1.053c0 5.536 4.341 10.065 9.648 10.065h44.646c5.306 0 9.648-4.529 9.648-10.065V58.84h.93c2.274 0 4.135-1.941 4.135-4.313v-3.504c0-2.373-1.86-4.313-4.134-4.313zm-3.848 13.184c0 3.871-3.019 7.021-6.73 7.021H14.629c-3.711 0-6.731-3.15-6.731-7.021v-1.053h58.107v1.053zm5.065-5.367c0 .688-.558 1.271-1.218 1.271H4.051c-.66 0-1.217-.582-1.217-1.271v-3.504c0-.688.558-1.271 1.217-1.271h65.802c.66 0 1.218.582 1.218 1.271v3.504zM15.634 38.406l5.323 4.059 5.326-4.059 5.328 4.059 5.328-4.059 5.328 4.059 5.329-4.059 5.327 4.059 5.33-4.06 5.336 4.059 6.194-4.712-1.72-2.459-4.474 3.403-5.336-4.057-5.33 4.056-5.327-4.057-5.329 4.057-5.328-4.057-5.328 4.057-5.328-4.057-5.325 4.057-5.323-4.057-5.327 4.057-4.467-3.401-1.721 2.457 6.188 4.714zm-7.656-6.862h60.877c.041-.619.069-1.241.069-1.87 0-.394-.016-.783-.032-1.173C68.227 12.657 54.186 0 36.952 0 19.719 0 5.677 12.657 5.013 28.501c-.017.39-.032.78-.032 1.173 0 .629.028 1.251.07 1.87h2.927zM36.952 3.043c15.591 0 28.35 11.316 29.021 25.458H7.931c.673-14.142 13.43-25.458 29.021-25.458z"/>
    <ellipse cx="36.952" cy="15.26" rx="1.945" ry="2.03"/>
    <ellipse cx="29.172" cy="10.23" rx="1.946" ry="2.03"/>
    <ellipse cx="44.732" cy="10.23" rx="1.946" ry="2.03"/>
  </symbol>
  <symbol viewBox="0 0 75 72" id="house"
    xmlns="http://www.w3.org/2000/svg">
    <path d="M29.656 65.033h16V41.21h-16v23.823zm2.937-20.899h10.125V62.11H32.593V44.134z"/>
    <path d="M72.771 39.253l2.076-2.068-9.908-9.865V0H51.127v13.567L37.5 0 .152 37.185l2.077 2.068 7.832-7.795v37.618H6.124V72h63.875v-2.924H64.94V31.458l7.831 7.795zM62.002 69.076H12.999V28.534L37.5 4.149l24.502 24.385v40.542zm0-44.682l-7.938-7.902V2.924h7.938v21.47z"/>
    <path d="M29.906 27.08c0 4.261 3.47 7.713 7.75 7.713 4.279 0 7.75-3.452 7.75-7.713 0-4.259-3.471-7.713-7.75-7.713-4.281 0-7.75 3.454-7.75 7.713zm7.75-4.945c2.744 0 4.969 2.214 4.969 4.945 0 2.732-2.225 4.948-4.969 4.948-2.746 0-4.97-2.216-4.97-4.948 0-2.731 2.225-4.945 4.97-4.945zM17.061 41.21h3v3.919h-3zm5.938 0h3v3.919h-3zm-5.938 5.972h3v3.919h-3zm5.938 0h3v3.919h-3zm25.999-5.972h3v3.919h-3zm5.938 0h3v3.919h-3zm-5.938 5.972h3v3.919h-3zm5.938 0h3v3.919h-3z"/>
  </symbol>
  <symbol viewBox="0 0 108.08 36.85" id="logo-htmlacademy"
    xmlns="http://www.w3.org/2000/svg">
    <title>logo-htmlacademy-small1</title>
    <path d="M44.61 26.86a2 2 0 0 0 .55-.1v1.33a3.25 3.25 0 0 1-1.18.21 1.67 1.67 0 0 1-1.67-1 4.84 4.84 0 0 1-3.14 1.08c-1.51 0-2.91-.83-2.91-2.55 0-2.13 2-2.79 3.71-2.79a11.08 11.08 0 0 1 2.17.25v-.3c0-1-.76-1.77-2.19-1.77a7.42 7.42 0 0 0-3 .64v-1.7a10.21 10.21 0 0 1 3.19-.55c2.36 0 3.81 1.12 3.81 3.65v3a.54.54 0 0 0 .49.59h.17zm-6.44-1.13a1.35 1.35 0 0 0 1.46 1.25h.11a3.39 3.39 0 0 0 2.41-1v-1.42a9.72 9.72 0 0 0-1.81-.21c-1 0-2.16.33-2.16 1.38zm12.36-6.11a5 5 0 0 1 2.57.64v1.72a4.08 4.08 0 0 0-2.3-.7 2.75 2.75 0 1 0 0 5.49 5 5 0 0 0 2.43-.64v1.71a6.27 6.27 0 0 1-2.76.57A4.21 4.21 0 0 1 46 24.49v-.41a4.32 4.32 0 0 1 4.18-4.46h.38zm12.17 7.24a2 2 0 0 0 .55-.1v1.33a3.25 3.25 0 0 1-1.18.21 1.67 1.67 0 0 1-1.67-1 4.84 4.84 0 0 1-3.14 1.08c-1.51 0-2.91-.83-2.91-2.55 0-2.13 2-2.79 3.71-2.79a11.08 11.08 0 0 1 2.17.25v-.3c0-1-.76-1.77-2.19-1.77a7.42 7.42 0 0 0-3 .64v-1.7a10.21 10.21 0 0 1 3.19-.55c2.36 0 3.81 1.12 3.81 3.65v3a.54.54 0 0 0 .49.59h.17zm-6.44-1.13a1.35 1.35 0 0 0 1.47 1.25h.11a3.39 3.39 0 0 0 2.41-1v-1.42a9.72 9.72 0 0 0-1.81-.21c-1.06 0-2.16.33-2.16 1.38zM73 15.98v12.2h-1.65v-1.32a3.88 3.88 0 0 1-3.19 1.54 4.4 4.4 0 0 1 0-8.78 3.81 3.81 0 0 1 3 1.3v-4.94H73zm-4.53 5.22a2.76 2.76 0 1 0 0 5.52 2.86 2.86 0 0 0 2.68-1.74v-2a2.91 2.91 0 0 0-2.66-1.73zM79 19.62c3.31 0 4.46 2.68 3.92 5.09H76.7c.21 1.5 1.67 2.11 3.19 2.11a6.11 6.11 0 0 0 2.64-.59v1.6a7.14 7.14 0 0 1-3 .57c-2.53 0-4.75-1.42-4.75-4.42a4.18 4.18 0 0 1 4-4.39H79zm.09 1.54a2.28 2.28 0 0 0-2.44 2.1v.06h4.65a2 2 0 0 0-2.17-2.16zm5.73 7v-8.31h1.65v1a3.81 3.81 0 0 1 2.78-1.27 2.86 2.86 0 0 1 2.64 1.4 4.12 4.12 0 0 1 2.91-1.33 3.06 3.06 0 0 1 3.2 3.33v5.2h-1.9v-5.15a1.59 1.59 0 0 0-1.42-1.75h-.26a2.8 2.8 0 0 0-2.07 1.12v5.78h-1.9v-5.15A1.59 1.59 0 0 0 89 21.29h-.2a3 3 0 0 0-2.21 1.29v5.63h-1.73zm21.31-8.33h1.9l-3.91 9.46c-.9 2.17-2.09 2.86-3.35 2.86a4.76 4.76 0 0 1-1.1-.14v-1.57a2.86 2.86 0 0 0 .85.12c.9 0 1.58-.64 2.07-1.9l.17-.42-4-8.4h2l2.86 6.29zM38.73 1.44V6.2a3.81 3.81 0 0 1 2.7-1.14 3.25 3.25 0 0 1 3.44 3.4v5.15H43V8.7a1.81 1.81 0 0 0-1.61-2h-.3a2.93 2.93 0 0 0-2.32 1.39v5.52h-1.9V1.44h1.9zm11.21.85v3h3v1.6h-3v3.81c0 1.1.5 1.46 1.58 1.46a4.49 4.49 0 0 0 1.69-.33v1.6a6.8 6.8 0 0 1-2.21.35 2.55 2.55 0 0 1-2.86-2.74V6.87h-1.56V5.24h1.5V2.72zm5.4 11.31V5.26H57v1a3.81 3.81 0 0 1 2.77-1.28 2.86 2.86 0 0 1 2.6 1.33 4.12 4.12 0 0 1 2.91-1.33 3.06 3.06 0 0 1 3.16 3.4v5.21h-1.9V8.44a1.59 1.59 0 0 0-1.42-1.75h-.23a2.8 2.8 0 0 0-2.07 1.12v5.78h-1.9V8.44a1.59 1.59 0 0 0-1.42-1.75h-.23a3 3 0 0 0-2.21 1.29v5.63h-1.72zM71.17 1.43H73v12.15h-1.83V1.43zM14.71-.02h-.16L0 1.52v26.67l14.55 8.66 14.55-8.66V1.52zm12.5 27.1l-12.66 7.54L1.9 27.1V16.16l12.59 7.5v1.32l-8.63-5.1v1.31l8.68 5.21v1.39l-8.67-5.16v1.35l8.68 5.21 8.75-5.24v-5.66l3.9-2.31V27.1zm0-12.53l-3.48 2-1.6 1-7.62-4.57v1.31L21 18.21l-.14.09-1 .54-5.37-3.2v1.34l4.24 2.52-1 .67-3.2-1.9v1.31l2.1 1.24-2.13 1.26L2 14.63l12.51-7.54zm0-1.32L14.49 5.74 1.91 13.23v-10L14.56 1.9l12.65 1.33v10z"/>
  </symbol>
  <symbol viewBox="0 0 186.643 96.425" id="logo-sedona"
    xmlns="http://www.w3.org/2000/svg">
    <path fill="#81B3D3" d="M186.643 0H0l80.486 90.474c7.061 7.936 18.61 7.936 25.67 0L186.643 0z"/>
    <path fill="#23A9E1" d="M43.242.721l49.523 58.35 49.324-57.997z"/>
    <path fill="#FFF" d="M122.023 17.332l-15.187.084c6.001-6.931 8.697-6.19 15.187-.084zM80.849 22.69h26.68c-1.985-1.233-6.708-7.059-9.308-4.893-.212.178-7.505-8.848-12.296-4.499-4.179 3.799-6.12-.498-10.857 2.511-5.399 3.57 3.12 5.675 5.781 6.881z"/>
    <path fill="#491213" d="M93.104.016h-50.92v22.463l50.581 61.522.339-.424 50.748-60.394V.016H93.104zm0 57.052l-.339.409L45.892 1.793h94.419L93.104 57.068z"/>
    <path fill="#491213" d="M92.765 57.477l.339-.409L120.68 24.78c-6.913.949-11.864 6.077-18.604 4.956-3.396-.564-3.498-2.514-4.469-4.456-.746-1.493-1.937-1.303-3.487-1.91-1.442-.565-2.277-1.738-5.162-1.061-2.528.593-2.807 4.518-5.952 4.293-1.689-.121-1.811-2.497-4.244-5.539-6.302-7.571-12.158-6.523-16.247.475l30.25 35.939z"/>
    <path fill="#23A9E1" d="M88.745 70.916l4.02-6.5 4.004 6.5-4.004 6.514z"/>
    <path fill="#491213" d="M124.567 20.258c-.035-.039-3.714-3.86-9.46-7.639-5.281-3.474-13.444-7.624-22.346-7.667-8.921-.049-16.971 4.087-22.156 7.566-5.632 3.78-9.18 7.61-9.215 7.648l-.706-.649c.036-.04 3.661-3.954 9.387-7.796 5.298-3.554 13.54-7.774 22.696-7.729 9.144.044 17.493 4.287 22.888 7.837 5.832 3.839 9.57 7.727 9.606 7.766l-.694.663zM48.363 1.2h.783v6.627h-.783zM54.116.933h.783v12.634h-.783z"/>
    <path fill="#491213" d="M60.363 1.017h.784v18.43h-.784zM66.779.933h.783v13.495h-.783zM73.42.819h.784v9.18h-.784zM80.33 1.074h.782v5.683h-.782zM86.676.918h.783v4.104h-.783z"/>
    <path fill="#491213" d="M66.851 14.538L60.408 2.002l.698-.358 6.442 12.536zM73.569 10.278L66.9 2.07l.608-.493 6.669 8.207zM79.517 7.402L73.55 2.114l.52-.586 5.965 5.288zM86.894 5.258l-6.318-3.09.344-.703 6.318 3.09zM92.56 4.794l-5.669-2.623.33-.71 5.668 2.623zM136.324 1.257h.783v5.781h-.783zM130.571.721h.784v12.973h-.784zM124.325 1.257h.782v18.458h-.782zM117.909 1.031h.782v13.241h-.782zM111.268.989h.783V10h-.783zM104.358.679h.783v6.078h-.783zM97.883 1.172h1.015v3.85h-1.015z"/>
    <path fill="#491213" d="M118.667 14.407l-.695-.358 6.395-12.406.695.359zM111.944 10.16l-.606-.496 6.635-8.088.605.496zM105.941 7.4l-.52-.585 5.964-5.287.52.585zM98.57 5.262l-.344-.705 6.32-3.084.344.705zM92.912 4.796l-.328-.71 5.672-2.619.328.711z"/>
    <path fill="#FFF" d="M65.464 32.265c.513.618.891 1.284.806 2.116-.059.579-.936 1.55-.27 1.846l2.242-2.834c-.602-.151-5.365-5.848-5.442-6.472l-3.159 1.734c.164.661 1.294.005 1.854.046.828.06 1.425.56 1.953 1.152-1.728 1.449-5.931 5.017-6.374 5.09-.226.036-1.088-.601-1.101-.056-.006.262.852 1.014 1.015 1.21l2.229 2.653c.619-.282-.11-.732.205-1.243.232-.374 4.901-4.267 6.042-5.242zM60.191 25.285c.443-.095.624.434.958-.056L58.7 22.312c-.371-.442-.84-.916-.706.018.089.63-6.113 5.664-6.493 5.82-.479.197-.758-.417-1.109.097l2.193 2.608c.246.292.477.612.747.882.339.339.208-.672.224-.585-.091-.513.527-.948.855-1.228 1.545-1.361 5.398-4.588 5.78-4.639zM51.42 24.368c-1.767.523-3.65-.164-4.207-2.042-.543-1.835.614-3.757 2.071-4.801 1.439-1.032 3.589-.97 4.373.838.346.799.158 1.706-.094 2.502-.16.506-.597 1 .056 1.289l2.581-3.286c-1.055-.633-1.518-1.683-2.3-2.595-.882-1.071-2.064-2.079-3.482-2.284-2.87-.406-5.574 2.556-5.795 5.245-.136 1.457.374 2.848 1.246 4.001.75.994 1.868 1.623 2.435 2.754.262.095 2.705-1.033 3.286-1.255-.052-.111-.089-.275-.17-.366-.761.226 0 0 0 0zM90.72 60.777c-1.15-.768-4.025-4.689-4.573-5.341l-.329-.392c-.011-.014-.284.225-.246.191-.173.145.134.573-.052.864-.793 1.241-5.758 4.983-6.016 5.163-.556.384-1.164-.159-1.489.316.719.854 2.78 3.543 3.019 3.582.479.078.148-.815.211-1 .123-.369 2.633-2.445 3.549-3.211.336-.281.688.426.888.723.327.484.474 1 .298 1.568-.116.37-.717.92-.25 1.174l2.613-3.049c.252-.293-.566-.037-.469-.087-.37.191-.718.235-1.063-.028-.096-.071-1.089-1.082-.99-1.166.431-.361.959-.963 1.517-1.1.862-.213 1.582 1.516 1.709 2.129a3.45 3.45 0 0 1-.076 1.75c-.124.387-.487.696.018.93.712-.974 1.422-1.946 2.131-2.92a.708.708 0 0 1-.4-.096c-.127-.085.139.07 0 0zM80.496 56.646c2.205-1.855 2.482-5.053.769-7.339-1.867-2.489-5.371-3.096-7.804-1.052-2.204 1.854-2.489 5.047-.758 7.325 1.991 2.621 5.199 2.918 7.793 1.066 1.156-.975-.099.07 0 0zm-.465-4.753c-.647 1.51-2.201 3.063-3.732 3.667-1.818.715-3.1-.827-2.36-2.553.65-1.516 2.203-3.057 3.737-3.666 1.852-.735 3.066.846 2.355 2.552-.381.89.071-.169 0 0zM74.052 42.037c.475.06.926.55 1.269.042-.742-.879-1.484-1.758-2.228-2.637-.595.269.047.549-.194.971-.244.427-2.56.781-3.176.89.224-.644.895-2.615 1.157-2.835.544-.445.883.432 1.283-.141l-2.743-3.253c-.31-.366-.559-1.028-.98-.68.038-.031.006 1.472-.089 1.733-.086.236-.936 3.638-1.926 4.47-.493.414-2.237 1.934-2.702 2.097-.541.189-.825-.598-1.22-.038l2.491 2.957c.125.148.602.863.767.893.521.094.06-.893.113-1.086.151-.431 2.5-2.719 3.497-2.859 1.461-.205 3.2-.702 4.681-.524.339.042-.352-.043 0 0z"/>
    <path fill="#DC6243" d="M67.792 22.874c-4.043-.167-2.351-3.954.395-4.808 2.611-.813 8.089 1.717 9.843 3.398-2.783.855-6.386.732-9.447.874-.226-3.12-.958-2.032-.791.536zM68.807 27.724c-2.04-1.579-1.396-5.266 1.763-4.146 4.005 2.084-.856 3.239-1.763 4.146 0 0 .042-.042 0 0zM77.295 35.423c-8.62-.071-2.792-13.322.141-12.521 3.373 1.073 2.995 12.622-.141 12.521zM83.401 31.094c-.84 2.501-2.361 2.968-2.192-.07.194-3.503 2.479-2.662 4.93-4.004 2.04-1.119 3.139-5.214 6.641-2.765 1.562 1.093 3.352.179 3.851 1.833-.025-.084-4.545 10.308-2.031 10.308-4.961 0-2.773-5.922-.874-9.899-1.847.885-4.842 6.688-2.382 7.643-1.281 1.686-5.194 3.945-7.234 2.298-1.552-1.249-.692-3.325-.709-5.344zM87.505 40.697c-3.489 1.046-8.122-1.207-2.51-2.34 3.483-.704 7.187.778 2.51 2.34.141-.042-.128.043 0 0zM91.875 40.556c-.736-1.658.562-3.635 2.68-2.199 1.847 1.252-.851 3.106-2.68 2.199zM88.929 45.224c-2.411-.747-10.537-.561-5.218-2.764 1.64-.679 10.154.098 5.218 2.764zM92.144 44.871c-.007-.96-.512-2.679 1.354-1.946 2.235.879-1.354 2.651-1.354 1.946 0 0 0-.169 0 0zM99.363 48.538c-1.437-1.227-2.891-1.295-4.229 0-1.795-3.293-8.318-2.19-11.366-2.651 1.638 4.029 14.864 4.78 15.595 2.651zM97.46 50.962c-3.151-.146-6.671-.563-9.646.084 1.86.466 6.396 1.795 2.172 2.918 1.515 2.168 3.973 2.029 5.584.127-.655-.322-1.01-.719-1.552-1.057 1.672-.303 3.234-1.267 3.442-2.072z"/>
    <g>
      <path fill="#DC6243" d="M101.056 47.085c-5.288-3.112-3.95-5.427.354-7.586 2.254-1.131 7.324-5.208 9.447-3.85l-9.801 11.436z"/>
    </g>
    <g>
      <path fill="#F49774" d="M97.291 39.809c-4.479-4.601 6.689-4.178 8.487-5.796 1.311.437 10.768-8.283 13.071-7.741-1.655 1.941-5.22 8.136-7.775 8.136-1.964 0-3.95-.292-5.472 1.107-2.224 2.048-5.908 3.09-8.311 4.294z"/>
    </g>
    <g>
      <path fill="#F4B1A4" d="M98.758 34.183c-2.453 1.319-4.772-3.907-.537-3.398 2.813.338 5.662-.237 8.348.226-1.927 2.291-4.706 3.553-7.811 3.172z"/>
    </g>
    <g>
      <path fill="#491213" d="M92.167 1.426h.938v3.313h-.938z"/>
    </g>
    <g>
      <path fill="#FFF" d="M111.39 52.466c.191.648.299 1.332.215 2.009-.107.873-.979 2.925-2.173 2.34-1.169-.573-2.194-1.728-3.188-2.552.802-.936 1.507-1.749 2.854-1.295.37.123.688-.036.299-.262-.405-.234-3.114-1.965-3.261-1.799-.271.311.528.868.221 1.473-.229.447-.61.834-.932 1.219-.72-.607-1.923-1.253-1.057-2.256.542-.66 1.25-1.172 2.098-1.342.565-.114 1.841.389 2.006-.224l-3.258-1.565c.177.799-3.349 4.525-4.131 5.464-.113.137-.658.609-.664.797-.009.429.622.097.657.084.486-.18 6.816 5.109 6.973 5.471.1.281-.221.574-.029.732-.011-.01.228.216.253.184.391-.468 4.522-5.975 5.374-6.217-.794-1.215-1.588-2.43-2.368-3.652-.59.258-.019.949.111 1.391zM105.229 59.169c-2.077-1.34-5.596 1.279-6.125 1.531-1.039.492-1.789-.543-1.251-1.502.469-.83 1.393-1.234 2.31-1.289.277-.017 1.35.198 1.459.026.13-.202.228-.22.042-.345l-2.567-1.734c-.176 1.055-1.385 1.727-2.076 2.441-.823.854-1.52 1.93-1.52 3.156 0 1.135.679 2.142 1.677 2.66 1.136.592 2.317.116 3.324-.511.627-.392 1.254-.856 1.924-1.171.996-.467 2.304-.062 1.953 1.27-.282 1.073-1.351 2.061-2.405 2.34-.616.164-1.27.109-1.872-.09-.432-.142-.993-.734-1.23-.111l3.482 2.537c.103-.76.522-1.09 1.086-1.564.735-.645 1.438-1.32 1.994-2.13 1.159-1.693 1.538-4.062-.205-5.514z"/>
      <path fill="#FFF" d="M105.229 59.169c.925.598-.591-.494 0 0zM134.462 21.855c-.007.004-.007.004 0 0z"/>
      <path fill="#FFF" d="M141.92 19.645c-.729.729-8.42-2.341-8.982-2.764-.29-.116-.3-1.321-.705-.833-.404.488-.81.976-1.216 1.463l-1.256 1.513c-.26.314-.537.458-.038.72.837-.419 5.417 7.346 5.008 8.461-.725.376-6.915-5.057-7.081-5.415-.052-.146.273-1.021-.211-.945-.229.036-.743.896-.889 1.072l-.889 1.072c.332.485.517-.021.959.042.383.077 1.844 1.331 2.241 1.664-.725.027-2.685.131-2.934.113-.903.112-.422-.663-1.015-.931-.759.922-1.52 1.843-2.277 2.764l-1.326 1.607c-.054.065-.047.032.05.112.33.273.104.168.568.006.506-.177 6.559 4.931 6.776 5.19.377.45-.154.975.411 1.221.6-.728 1.198-1.457 1.798-2.184.091-.11.141-.1.021-.198-.427-.353-.476.212-1.002.154-.533-.089-4.395-3.369-5.895-4.61l8.199-.304c.3-.011 1.139.896 1.068 1.216-.081.378-.463.558.054.794.479-.575.985-1.149 1.456-1.734l.227-.282a.74.74 0 0 0 .21-.265l.168-.211c.425-.485 1.8-2.006 1.635-2.15-.461-.4-.685.466-1.298-.054-.348-.249-1.223-1.788-1.443-2.162-.264-.449.608-.897.964-1.119.776-.482 3.247-1.183 3.482.348.04.258-.271.55-.084.704.044.037.204.242.27.163.163-.197 2.361-2.843 3.3-3.969-.098-.082-.207-.224-.324-.269zm-7.374 2.156c.077-.049.153-.098 0 0a2.533 2.533 0 0 0-.084.054l.082-.052c-.345.22-.668.473-.958.761-.521-.897-1.044-1.795-1.564-2.693 1.177.491 2.352.985 3.524 1.481a3.735 3.735 0 0 0-1 .449zM124.801 33.012c-2.375-1.979-5.63-1.404-7.586.832-1.903 2.312-1.712 5.663.605 7.615 2.339 1.926 5.67 1.438 7.572-.846 1.898-2.303 1.768-5.668-.591-7.601zm-.281 6.614l-.026.027c-1.232 1.292-3.358.096-4.505-.731-1.146-.829-3.111-2.57-1.856-4.104 1.056-1.287 3.124-.231 4.191.482 1.2.803 3.412 2.596 2.276 4.216.074-.09.126-.148-.08.11z"/>
      <path fill="#FFF" d="M124.801 33.012c1.171.959-.253-.211 0 0zM124.492 39.653l.026-.027c.029-.037.056-.073.08-.11-.049.061-.11.137-.106.137zM118.209 42.136c.112.094.273.224-.063-.057-2.835-2.127-6.194-1.504-8.402 1.157-.988 1.189-1.976 2.378-2.961 3.567.351.512.763-.118 1.273.176.436.25 6.244 5.101 6.339 5.366.164.458-.255.548.144.875.172.143 4.536-5.245 4.935-6.191.69-1.755.14-3.678-1.265-4.893zm-1.318 6.754c-.24.296-.044.054-.665.65-.306.293-6.438-4.675-6.192-4.944.835-.918 2.567-1.556 3.577-1.297 2.19.56 5.213 3.26 3.28 5.591z"/>
    </g>
  </symbol>
  <symbol viewBox="0 0 1200 57" id="mask"
    xmlns="http://www.w3.org/2000/svg">
    <path d="M250.08 23.71L.514 0v57H600.47L250.08 0m700.78 23.71V0L600.47 57h599.954V0"/>
  </symbol>
  <symbol viewBox="0 0 64 76" id="souvenir"
    xmlns="http://www.w3.org/2000/svg">
    <path fill-rule="evenodd" clip-rule="evenodd" d="M61.097 22.501H36.312C50.125 15.602 51.229 11.25 50.72 8.816c-1.162-3.963-5.692-7.023-10.002-5.407-5.569 2.089-7.137 10.388-8.644 16.387-1.924-6.07-3.784-13.814-8.136-17.737C22.677.921 20.843-.205 18.175.031c-4.026.356-9.802 5.382-7.458 10.981 2.251 5.378 9.687 8.777 14.578 11.489H2.879A2.882 2.882 0 0 0 0 25.37v11.322a2.882 2.882 0 0 0 2.879 2.869h.274V76h57.841V39.561h.103a2.882 2.882 0 0 0 2.88-2.869V25.37a2.882 2.882 0 0 0-2.88-2.869zM42.413 5.944c2.103-.31 4.982 1.299 5.255 3.209.393 2.756-3.4 5.255-5.086 6.421-2.523 1.744-4.928 2.643-7.287 4.055.884-3.69 2.549-13.011 7.118-13.685zm-22.882 9.968c-2.225-1.485-6.544-4.431-6.44-7.771.112-3.595 5.743-6.57 8.814-3.886 3.856 3.371 5.713 11.105 7.119 16.557-3.249-1.539-6.328-2.788-9.493-4.9zm5.972 57.114H6.136V39.561h19.368v33.465zm0-36.502H3.046V25.538h22.457v10.986zm10.157 0v36.503h-7.174V25.538h7.174v10.986zm22.351 36.502H38.644V39.561h19.367v33.465zm2.92-36.502H38.644V25.538h22.287v10.986z"/>
  </symbol>
  <symbol viewBox="0 0 18 17" id="star"
    xmlns="http://www.w3.org/2000/svg">
    <path fill="#81B3D2" d="M9.002 0l2.126 6.494h6.877l-5.564 4.012L14.566 17l-5.564-4.013L3.438 17l2.126-6.494L0 6.494h6.878z"/>
  </symbol>
  <symbol viewBox="0 0 11 10" id="triangle-down"
    xmlns="http://www.w3.org/2000/svg">
    <path d="M5.5 10L0 0h11"/>
  </symbol>
  <symbol viewBox="0 0 11 10" id="triangle-up"
    xmlns="http://www.w3.org/2000/svg">
    <path d="M5.5 0L0 10h11z"/>
  </symbol>
  <symbol viewBox="0 0 17 15" id="twitter"
    xmlns="http://www.w3.org/2000/svg">
    <path d="M10.95.144c1.685-.496 2.984.27 3.577 1.179.673-.231 1.331-.481 2.011-.708a2.345 2.345 0 0 1-.857 1.768c.685.17 1.304-.491 1.304-.491-.169 1-1.006 1.788-1.563 2.024-.231 6.75-3.175 11.217-10.077 11.082h-.446c-.41 0-4.164-.46-4.898-1.887 2.271.196 3.893-.422 4.693-1.177-.96-.3-2.679-.477-2.979-2.95.349.106.564.228 1.19.119C1.705 8.247.374 7.53.448 5.33c.285.328 1.067.536 1.34.472C1.085 5.561-.182 2.442.894.85c1.818 1.854 3.735 3.606 7.152 3.773C8.254 2.33 9.183.793 10.95.144z"/>
  </symbol>
  <symbol viewBox="0 0 20 16" id="youtube"
    xmlns="http://www.w3.org/2000/svg">
    <path d="M17 0H3C1.35 0 0 1.35 0 3v10c0 1.65 1.35 3 3 3h14c1.65 0 3-1.35 3-3V3c0-1.65-1.35-3-3-3zM6.027 11.998V4.002L15.014 8l-8.987 3.998z"/>
  </symbol>
</svg>
